# xmcd CD database file
#
# Track frame offsets:
#	150
#	12830
#	25892
#	42637
#	55435
#	70592
#	85680
#	100130
#	115037
#	129197
#	143565
#
# Disc length: 2097 seconds
#
# Revision: 4
# Processed by: cddbd v1.5.1PL0 Copyright (c) Steve Scherf et al.
# Submitted via: CDex 1.51
#
DISCID=86082f0b
DTITLE=LeAnn Rimes - Blue
DYEAR=1996
DGENRE=Country
TTITLE0=Blue
TTITLE1=Hurt Me
TTITLE2=One Way Ticket (Because I Can)
TTITLE3=My Baby
TTITLE4=Honestly
TTITLE5=The Light In Your Eyes
TTITLE6=Talk To Me
TTITLE7=I'll Get Even With You
TTITLE8=Cattle Call (with Eddy Arnold)
TTITLE9=Good Lookin' Man
TTITLE10=Fade To Blue
EXTD=YEAR: 1996
EXTT0=
EXTT1=
EXTT2=
EXTT3=
EXTT4=
EXTT5=
EXTT6=
EXTT7=
EXTT8=
EXTT9=
EXTT10=
PLAYORDER=
